<?xml version="1.0" encoding="UTF-8"?>
<svg width="80px" height="100px" viewBox="0 0 259 334" version="1.1" xmlns="http://www.w3.org/2000/svg" xmlns:xlink="http://www.w3.org/1999/xlink">
    <title>编组</title>
    <defs>
        <polygon id="path-1" points="0 0 100 0 100 206 0 206"></polygon>
        <polygon id="path-3" points="0 0 259 0 259 252 0 252"></polygon>
    </defs>
    <g id="页面-1" stroke="none" stroke-width="1" fill="none" fill-rule="evenodd">
        <g id="桌面端-HD" transform="translate(-189.000000, -1392.000000)">
            <g id="编组" transform="translate(189.000000, 1392.000000)">
                <g transform="translate(77.000000, 0.000000)">
                    <mask id="mask-2" fill="white">
                        <use xlink:href="#path-1"></use>
                    </mask>
                    <g id="Clip-2"></g>
                    <path d="M6.61640156,63.2178134 C9.54366677,53.9248882 14.9097418,45.1711169 22.5659329,37.1992335 C31.1100496,28.3024292 42.5779645,20.3098386 56.6518735,13.442722 C64.030323,9.84273931 70.7519772,7.10095442 75.5013196,5.29981266 C72.7955543,18.4458084 68.8351366,47.1754958 79.5880885,69.4015928 C81.0954432,72.5172575 82.5677432,75.4438732 83.9911206,78.2746223 C95.4763703,101.10813 102.408738,114.89068 87.8706427,147.810889 C82.0650348,160.957268 73.4153687,173.281111 62.1616345,184.440751 C55.8525478,190.696622 49.8030975,195.49302 45.2012933,198.798501 C60.7174554,135.291477 14.8080445,104.632186 5.61329608,99.2115052 C3.06816629,85.8139555 3.41178,73.3896436 6.61640156,63.2178134 M2.70490651,102.045322 C8.80944286,105.443601 60.035621,136.291174 39.6934584,204.117947 C39.3914481,205.123396 40.1942407,206 41.1037384,206 C41.3653008,206 41.6353381,205.927525 41.8903518,205.765319 C51.1883385,199.846131 77.5021375,180.984568 91.4585553,149.381183 C108.600334,110.564412 96.8697008,96.1295856 83.1193742,67.7085886 C71.4638585,43.6169275 78.0271885,11.1419235 80.2968881,1.8064336 C80.5299444,0.849301421 79.7799266,-7.66932836e-05 78.8758219,-7.66932836e-05 C78.7136455,-7.66932836e-05 78.5456908,0.0275328888 78.3781214,0.0869701834 C74.12725,1.58900814 65.1285771,4.96197875 54.926871,9.93937284 C24.5548091,24.7584325 8.79788635,43.2534013 2.87671336,62.0505416 C-0.793250538,73.699101 -0.794406189,87.22933 1.98031303,101.054061 C2.06467558,101.474341 2.32931977,101.835949 2.70490651,102.045322" id="Fill-1" fill="#00501E" mask="url(#mask-2)"></path>
                </g>
                <g transform="translate(0.000000, 82.000000)">
                    <mask id="mask-4" fill="white">
                        <use xlink:href="#path-3"></use>
                    </mask>
                    <g id="Clip-4"></g>
                    <path d="M224.27617,77.4184776 C207.87183,112.423224 163.656147,120.279706 141.781766,121.990155 C149.204704,116.024047 159.165832,106.861368 168.103664,94.7905399 C182.770638,74.9809912 189.970333,53.8795322 189.516135,32.0460165 C194.510386,29.5046675 209.441474,22.8999402 229.678351,22.8987819 L229.679893,22.8987819 C237.543921,22.8987819 245.440722,23.8957073 253.207586,25.8652334 C247.868252,32.6993076 238.415688,47.2473914 224.27617,77.4184776 M137.726756,208.216866 C137.815436,208.424978 137.762228,208.301424 137.726756,208.216866 M103.445596,234.666664 C103.263993,234.809137 103.375808,234.721105 103.445596,234.666664 M93.9244004,217.639008 C94.0446974,217.62202 94.0373716,217.624336 93.9244004,217.639008 M20.6489067,79.2690832 C4.77048047,61.6962459 0.17182112,36.9209894 6.96050185,5.58656609 C12.789506,9.33642647 23.6648129,14.5847638 42.4673803,18.4029649 C52.9806397,20.5377444 64.1150477,25.0447584 73.8190016,31.0931071 C85.6840594,38.4889654 94.8358811,47.6705634 101.020378,58.3838435 C111.200893,76.0192299 112.698821,96.8774422 105.486402,120.416774 C98.5955464,116.422508 83.2364791,108.387259 63.4194846,103.253981 C45.1420596,98.5199366 30.7519226,90.4499375 20.6489067,79.2690832 M257.942736,23.0902904 C247.782271,20.0995142 238.26416,18.9701545 229.675652,18.9705406 C206.420555,18.9716989 190.00542,27.2556007 186.304361,29.3031202 C185.817389,29.5726222 185.530142,30.0930929 185.551348,30.6494715 C187.420963,80.8158234 146.241621,114.280779 133.079515,123.667013 C131.91009,124.500616 132.508105,126.337321 133.926606,126.337321 C133.940872,126.337321 133.955909,126.336935 133.970175,126.336935 C147.718729,125.978629 187.455279,122.862368 212.691419,99.6072108 C214.27263,104.664812 215.084249,109.867975 215.084249,115.121331 C215.084249,151.156208 177.471017,180.511066 131.052589,180.888292 C130.958896,180.875164 130.864818,180.863195 130.76804,180.867442 C130.704036,180.870531 130.642731,180.884431 130.579883,180.892925 C130.435681,180.893697 130.292636,180.897558 130.148434,180.897558 C83.3143637,180.897558 45.2122328,151.390188 45.2122328,115.121331 C45.2122328,110.663739 45.7932825,106.222363 46.9368746,101.889869 C52.821786,104.348977 58.2390044,105.96985 62.4370595,107.05751 C84.7980261,112.849484 101.159182,122.297496 106.107551,125.363562 C106.350073,125.514144 106.614572,125.584029 106.87483,125.584029 C107.483255,125.584029 108.065461,125.201398 108.277137,124.567412 C131.613974,54.6196972 76.5881448,21.3230838 43.2469971,14.552717 C20.6635582,9.96732349 10.1028741,3.29657207 6.29347069,0.313904087 C6.01894688,0.0988431073 5.70239626,0 5.39162914,0 C4.74503303,0 4.12311323,0.428963641 3.95346368,1.13553742 C-10.8264817,62.7105461 18.8425246,88.9024251 43.3102301,100.288302 C41.9734688,105.137405 41.2894727,110.118557 41.2894727,115.121331 C41.2894727,133.835112 50.5970636,151.396366 67.4976283,164.571071 C83.9497784,177.39635 105.700778,184.558614 128.867194,184.813444 C128.874134,184.849352 128.88146,184.884874 128.888015,184.920396 C128.87799,185.226964 128.86758,185.533918 128.853314,185.840872 C128.448854,187.564063 127.954171,189.266017 127.341505,190.928589 C127.225064,191.24481 127.105152,191.559872 126.981,191.87339 C126.909284,192.055632 126.834484,192.237102 126.761226,192.418958 C126.758913,192.425136 126.743105,192.462974 126.728068,192.499654 C126.703006,192.559501 126.660979,192.657958 126.653653,192.67456 C126.367177,193.339048 126.06335,193.996201 125.743715,194.645245 C125.121795,195.908583 124.438184,197.141419 123.695196,198.337961 C122.95298,199.534117 122.151771,200.694365 121.296198,201.812142 C121.252243,201.8689 121.184383,201.95616 121.153538,201.99477 C121.052134,202.123343 120.949958,202.250758 120.847012,202.378173 C120.62454,202.653081 120.398212,202.925671 120.168799,203.195559 C119.710746,203.734177 119.239968,204.261598 118.756081,204.777049 C117.791007,205.806021 116.77658,206.787889 115.71627,207.718404 C115.207321,208.165128 114.688348,208.599884 114.15935,209.022669 C114.110383,209.061666 113.907189,209.221514 113.835859,209.278272 C113.771855,209.326921 113.609145,209.451247 113.569046,209.481749 C113.287968,209.693335 113.004576,209.902219 112.718485,210.106855 C110.449037,211.733905 108.024205,213.142805 105.486788,214.306529 C105.165225,214.454021 104.84212,214.596108 104.517858,214.737037 C104.483542,214.751709 104.462722,214.760975 104.444986,214.768697 C104.426478,214.776033 104.398717,214.786844 104.354763,214.804605 C104.178173,214.875649 104.001969,214.948623 103.824994,215.018508 C103.165674,215.279901 102.500185,215.525079 101.828912,215.753653 C100.505646,216.204625 99.1607878,216.591117 97.8001214,216.911585 C97.1022448,217.076066 96.4001271,217.223172 95.6949247,217.352132 C95.3683494,217.411978 95.0410029,217.46835 94.7128852,217.520474 C94.5482481,217.546729 94.384382,217.571826 94.2193593,217.596151 C94.117184,217.611209 94.0150087,217.625881 93.9124478,217.640553 C93.901652,217.641711 93.8958684,217.642483 93.8827592,217.644414 C92.4654143,217.822023 91.0415149,217.935924 89.6137597,217.975693 C88.1351097,218.017006 86.6541463,217.982257 85.1789664,217.872603 C84.4594981,217.818934 83.7415721,217.747504 83.0255739,217.6587 C82.9442192,217.648661 82.8636357,217.63785 82.7826666,217.627425 C82.7699429,217.625495 82.7568336,217.623564 82.7363986,217.620475 C82.5574954,217.59422 82.3785922,217.568351 82.2000747,217.540938 C81.754359,217.471825 81.309029,217.396148 80.8656268,217.313521 C79.118622,216.987648 77.3912812,216.555981 75.6967136,216.020066 C74.0773316,215.507704 72.5450878,214.920823 71.171312,214.290698 C69.6113073,213.57563 68.0944862,212.76751 66.6304877,211.871745 C65.9048504,211.427337 65.1919367,210.961693 64.4936746,210.4752 C64.1724972,210.251645 63.8540187,210.023456 63.5390104,209.79102 C63.381699,209.674802 63.2251587,209.557812 63.069004,209.439664 C63.0069277,209.392559 62.9444658,209.345068 62.8823895,209.297191 C62.8577132,209.277499 62.7709606,209.209159 62.7458988,209.189081 C62.0858078,208.660888 61.4376694,208.12034 60.8049537,207.559714 C60.0615803,206.900632 58.9364954,206.826113 58.2043033,207.559714 C57.5341876,208.230766 57.4578453,209.501827 58.2043033,210.163612 C63.6053279,214.951711 70.0728312,218.453692 77.0701038,220.242907 C83.3937905,221.860304 90.0051104,222.086562 96.4278879,220.94755 C102.211781,219.921666 107.821011,217.699241 112.761283,214.519659 C117.788308,211.284092 122.130179,207.087893 125.557871,202.188595 C125.824684,201.807123 126.083399,201.419472 126.338259,201.029505 C126.20601,201.485496 126.071447,201.941101 125.929944,202.394776 C125.5945,203.466606 125.232453,204.529941 124.844572,205.583624 C124.674151,206.044635 124.499489,206.503715 124.31943,206.960864 C124.219182,207.214149 124.117778,207.467049 124.014832,207.719176 C123.963551,207.845433 123.911114,207.971303 123.859448,208.097174 C123.844411,208.13424 123.828603,208.17092 123.81318,208.207986 C123.803541,208.229608 123.788504,208.265902 123.759586,208.333857 C122.034944,212.303797 119.97563,216.110801 117.541159,219.691161 C116.937361,220.579591 116.311971,221.453735 115.666532,222.312434 C115.611396,222.385794 115.324534,222.761089 115.309882,222.781553 C115.181103,222.947578 115.051552,223.113218 114.921616,223.277699 C114.571907,223.719404 114.216799,224.156476 113.856294,224.589301 C112.484061,226.236042 111.033943,227.817918 109.512495,229.327206 C107.990661,230.83688 106.397498,232.273966 104.739944,233.632287 C104.324689,233.97206 103.904806,234.305655 103.483381,234.636934 C103.473356,234.644656 103.46873,234.648517 103.459861,234.655467 C103.336866,234.750063 103.21387,234.844273 103.090103,234.937711 C102.876113,235.099875 102.661352,235.260495 102.44582,235.420343 C101.581764,236.058576 100.702671,236.676731 99.8093118,237.273265 C98.0171957,238.470193 96.1684012,239.58102 94.2698686,240.600339 C93.293227,241.124671 92.3034761,241.625065 91.3013871,242.100361 C90.8363931,242.321213 90.3683146,242.537047 89.8979227,242.747088 C89.6503886,242.857901 89.4016978,242.966782 89.1522359,243.074506 C89.0863039,243.103464 89.0199863,243.13165 88.9536688,243.160222 C89.0774358,243.106553 88.6768316,243.276439 88.6155264,243.301922 C84.5258157,244.993066 80.2687688,246.27571 75.9261261,247.126301 C74.8291875,247.341362 73.7268511,247.528237 72.6206589,247.688085 C72.5096156,247.704302 72.3981867,247.719746 72.2871433,247.735576 C72.2663227,247.738279 72.2512856,247.740596 72.2347062,247.742912 C72.2227536,247.744457 72.2088732,247.746387 72.1907516,247.748704 C71.9397473,247.780751 71.6883576,247.812411 71.4365822,247.842528 C70.8192892,247.915888 70.2008395,247.980754 69.5820042,248.037125 C67.2427684,248.249869 64.8923511,248.340604 62.543476,248.310488 C51.5852722,248.169945 40.7230745,245.25446 31.1860712,239.843186 C30.0085491,239.174837 28.8526188,238.469807 27.7159669,237.733503 C26.8819851,237.192955 25.6851847,237.563231 25.2001412,238.39413 C24.6784689,239.287193 25.0235515,240.371765 25.8594611,240.913471 C35.5472212,247.190395 46.7332952,250.928672 58.2343776,251.80243 C67.8068531,252.530239 77.5775101,251.243734 86.6182886,248.001217 C95.1582153,244.937853 103.038051,240.220025 109.77815,234.140016 C116.347829,228.213677 121.796664,220.978052 125.65195,213.008441 C127.890938,208.380189 129.604013,203.523749 130.77151,198.53642 C131.691473,202.463889 132.948808,206.314523 134.536959,210.042761 C138.01516,218.209287 143.125082,225.684297 149.422935,231.93149 C155.858051,238.314593 163.506161,243.352502 171.86757,246.82205 C180.425233,250.373066 189.733595,252.110928 198.992604,251.993552 C210.598561,251.846446 222.105812,248.756054 232.206129,243.023154 C233.383651,242.354805 234.539967,241.649775 235.676234,240.913471 C236.509444,240.373695 236.85337,239.279857 236.335939,238.39413 C235.851281,237.564003 234.657565,237.190638 233.820113,237.733503 C229.204489,240.723893 224.399551,243.080298 219.322018,244.808508 C214.005818,246.618186 208.519197,247.739437 203.088099,248.135582 C200.46123,248.327477 197.823179,248.366473 195.191683,248.253344 C194.054646,248.204695 192.918379,248.127474 191.784812,248.021295 C191.250416,247.971487 190.716791,247.915116 190.183552,247.852566 C189.931776,247.822836 189.680387,247.790789 189.428997,247.759515 C189.390826,247.754882 189.361137,247.751021 189.336075,247.747932 C189.31217,247.744457 189.283252,247.740596 189.248937,247.735576 C189.082372,247.711638 188.915421,247.688471 188.749242,247.663761 C184.372284,247.020508 180.060486,245.942887 175.89559,244.449815 C174.86921,244.081856 173.852084,243.688414 172.845368,243.270648 C172.852694,243.273737 172.706179,243.21196 172.614799,243.173735 C172.524191,243.134739 172.375748,243.071417 172.383459,243.074506 C172.134383,242.966782 171.885692,242.857901 171.638158,242.747088 C171.142704,242.52585 170.65072,242.298819 170.16105,242.065611 C168.210466,241.137027 166.305378,240.113846 164.453499,239.001089 C162.610103,237.894123 160.819529,236.698353 159.090646,235.420343 C158.874728,235.260495 158.659967,235.099875 158.445978,234.937711 C158.339176,234.857014 158.232374,234.775546 158.125957,234.693692 C158.10745,234.679406 158.101666,234.675159 158.091641,234.667436 C158.07699,234.656239 158.070821,234.65122 158.052699,234.636934 C157.610068,234.289439 157.169365,233.938855 156.734445,233.581321 C155.906247,232.901002 155.093857,232.200992 154.299203,231.482063 C152.70951,230.044977 151.188447,228.532214 149.741799,226.950724 C148.999968,226.140288 148.278187,225.311319 147.57684,224.465361 C147.268772,224.093927 146.964559,223.719018 146.664588,223.34102 C146.514602,223.151828 146.365773,222.961864 146.218101,222.771128 C146.182243,222.724409 146.134048,222.66186 146.112456,222.633288 C145.999099,222.483479 145.885742,222.334056 145.773157,222.183475 C143.190242,218.731302 140.937759,215.031635 139.059662,211.149341 C138.588113,210.174809 138.142012,209.188695 137.716731,208.193314 C137.713647,208.185592 137.710177,208.177484 137.707863,208.172464 C137.645787,208.021497 137.582939,207.87053 137.521249,207.719176 C137.428327,207.492532 137.337333,207.264729 137.24711,207.036927 C137.036205,206.503715 136.83224,205.968186 136.635215,205.429954 C136.048768,203.827229 135.525553,202.201337 135.063258,200.558842 C138.236861,205.565863 142.372069,209.892566 147.191273,213.334314 C151.961895,216.741312 157.451986,219.208915 163.163777,220.518972 C169.324369,221.93212 175.707819,222.017449 181.914293,220.845618 C189.096638,219.489228 195.829411,216.322001 201.554698,211.793365 C202.217488,211.269034 202.863313,210.724238 203.496029,210.163612 C204.239788,209.504144 204.168072,208.232697 203.496029,207.559714 C202.756896,206.819549 201.641065,206.898315 200.895378,207.559714 C198.477487,209.702988 195.840978,211.54703 192.842423,213.145508 C191.301311,213.966755 189.859675,214.625838 188.386038,215.18878 C186.774753,215.804233 185.126839,216.322773 183.454248,216.742084 C182.587108,216.959076 181.713413,217.149812 180.834705,217.313521 C180.425233,217.389584 180.014989,217.460241 179.603589,217.524721 C179.419288,217.553679 179.234987,217.580706 179.050686,217.60812 C179.045288,217.609278 179.017142,217.613139 178.98514,217.617773 C178.913038,217.627039 178.70329,217.654839 178.675144,217.6587 C177.221555,217.839011 175.759099,217.947121 174.295101,217.981098 C172.828789,218.015076 171.360935,217.974534 169.898864,217.859089 C169.203301,217.804262 168.509666,217.731288 167.817573,217.644414 C167.810247,217.643256 167.781715,217.639395 167.75087,217.635147 C167.686094,217.625881 167.589317,217.611981 167.563098,217.60812 C167.398461,217.584181 167.233824,217.559471 167.069572,217.533602 C166.71408,217.477616 166.359358,217.416998 166.005022,217.352132 C163.227781,216.842858 160.500665,216.059449 157.875338,215.018508 C157.723425,214.958661 157.572283,214.896884 157.420755,214.835494 C157.345183,214.804605 157.269612,214.773331 157.194427,214.742056 C157.261901,214.769856 157.509821,214.878737 157.182474,214.737037 C156.858212,214.596494 156.535107,214.454021 156.213544,214.306529 C155.57196,214.012316 154.937702,213.702273 154.31077,213.377172 C153.084281,212.740483 151.887866,212.045879 150.726923,211.295675 C150.135849,210.91343 149.553643,210.517285 148.981847,210.106855 C148.717733,209.917663 148.455547,209.725768 148.196061,209.530399 C148.094657,209.454336 147.994409,209.377501 147.893776,209.300666 C147.875654,209.284835 147.599974,209.069774 147.540982,209.022669 C146.461394,208.160109 145.422291,207.246582 144.429455,206.285565 C143.414257,205.303311 142.446483,204.271637 141.531147,203.195559 C141.319856,202.946521 141.110879,202.695166 140.904986,202.441495 C140.801654,202.314466 140.699093,202.187051 140.597689,202.058864 C140.561446,202.013689 140.45233,201.873147 140.39758,201.803648 C139.978083,201.254605 139.570153,200.696296 139.17726,200.127562 C137.559805,197.787374 136.173692,195.287339 135.046679,192.67456 C135.025858,192.626683 135.005423,192.57842 134.984602,192.530156 C134.980747,192.519732 134.977277,192.511623 134.970722,192.496565 C134.896693,192.315095 134.822279,192.133626 134.749792,191.951384 C134.615229,191.612383 134.484522,191.271065 134.358827,190.928589 C134.104738,190.239776 133.868386,189.544014 133.649769,188.842845 C133.291963,187.694566 132.993919,186.528913 132.731734,185.354765 C132.769519,185.167117 132.804606,184.97947 132.839307,184.79105 C155.477496,184.266718 176.68099,177.135729 192.798854,164.571071 C209.699804,151.396366 219.007395,133.835112 219.007395,115.121331 C219.007395,108.810817 217.933976,102.568643 215.818369,96.5430745 C220.563158,91.5889498 224.673304,85.8182112 227.827629,79.0872273 C244.808006,42.8542786 254.874779,29.659496 258.618636,25.4976606 C259.345815,24.6891549 258.98531,23.3968585 257.942736,23.0902904" id="Fill-3" fill="#00501E" mask="url(#mask-4)"></path>
                </g>
                <path d="M115.0022,217.981528 C115.0022,217.972528 115.0008,217.978028 114.9978,218.022128 C114.9981,218.020928 114.9984,218.019728 114.9985,218.018528 C114.9998,218.006128 115.001,217.993828 115.0022,217.981528" id="Fill-5" fill="#00501E"></path>
                <path d="M116.273561,216 C115.33126,216 114.554928,216.795271 114.54756,217.737727 C114.545621,217.95792 114.538641,218.176941 114.520803,218.396353 C114.51964,218.41197 114.518089,218.427586 114.51615,218.443203 C114.51615,218.472484 114.512272,218.53534 114.504129,218.578286 C114.503741,218.581409 114.502966,218.584142 114.50219,218.587265 C114.500251,218.6103 114.497149,218.632944 114.495598,218.655587 C114.496761,218.633724 114.498312,218.62006 114.499476,218.601711 C114.420369,219.014767 114.331568,219.421187 114.199723,219.82175 C114.176844,219.892415 114.024059,220.27541 114.032978,220.271506 C113.984894,220.378088 113.937197,220.484671 113.885235,220.589302 C113.691346,220.977372 113.469924,221.351778 113.227175,221.710958 C113.189948,221.766006 113.029796,221.986589 112.970466,222.070918 C112.923157,222.130651 112.862663,222.207172 112.859173,222.211076 C112.80217,222.28057 112.744003,222.349673 112.685061,222.417605 C112.386084,222.765853 112.067718,223.097313 111.734617,223.412767 C111.425557,223.706357 111.100211,223.979646 110.773314,224.252935 C110.758966,224.265038 110.750823,224.271675 110.739578,224.281045 C110.656981,224.344292 110.573996,224.406758 110.490624,224.468052 C110.272692,224.628512 110.051659,224.783896 109.827911,224.935376 C109.029863,225.473756 108.194977,225.955525 107.337599,226.391226 C106.920349,226.602829 106.498059,226.803501 106.070727,226.994023 C106.009071,227.021352 105.947414,227.04829 105.885757,227.075229 C105.839224,227.09514 105.728707,227.14277 105.68799,227.159167 C105.419648,227.267702 105.151305,227.375456 104.880248,227.478135 C103.048771,228.172288 101.154474,228.701688 99.2314821,229.066334 C98.7874759,229.150272 98.3411432,229.222499 97.8944226,229.290821 C97.8540937,229.297068 97.7711091,229.307999 97.7168202,229.315027 C97.6613679,229.322054 97.6059156,229.329081 97.5496877,229.335718 C97.2871619,229.367342 97.0242482,229.395061 96.760559,229.419267 C95.940408,229.494226 95.1156036,229.536781 94.2923503,229.525849 C93.5695317,229.516089 92.8478763,229.46026 92.1304865,229.37554 C92.0436242,229.364999 91.9571497,229.353287 91.8706751,229.343136 C91.8602051,229.341575 91.8574906,229.340794 91.8458573,229.339232 C91.6763982,229.312294 91.5061635,229.288088 91.3367044,229.259978 C90.8977394,229.188142 90.4599378,229.106156 90.0244628,229.01597 C88.2356417,228.645469 86.4735773,228.135199 84.7607607,227.497265 C84.3691046,227.351641 83.9817142,227.196257 83.5950992,227.037359 C83.5299525,227.008468 83.2313632,226.881584 83.1681554,226.853084 C82.9188139,226.741816 82.6706359,226.627035 82.4240089,226.50913 C81.5848567,226.107005 80.7631546,225.666619 79.9693725,225.179775 C79.5432042,224.918589 79.1247914,224.643738 78.7172365,224.354052 C78.5260618,224.218188 78.3383771,224.078811 78.1522436,223.93592 C78.1417735,223.927331 78.1351813,223.921475 78.1223846,223.910933 C78.0176845,223.8227 77.9106577,223.7372 77.8059576,223.648576 C77.131999,223.076231 76.5189215,222.446105 75.9581942,221.762492 C75.9081708,221.689875 75.7076894,221.424004 75.6658093,221.361538 C75.5397814,221.173359 75.4191824,220.980886 75.3063389,220.784508 C75.204741,220.608042 75.1093475,220.428061 75.0197708,220.245348 C74.9848707,220.173512 74.9538485,220.097382 74.9166217,220.025936 C74.912744,220.018518 74.9119684,220.017738 74.9084784,220.011491 C74.9061517,220.004854 74.9065395,220.004073 74.9038251,219.996265 C74.762286,219.576571 74.6215225,219.165467 74.5342724,218.729375 C74.5187612,218.651293 74.508679,218.569697 74.4908412,218.492005 C74.4900657,218.4881 74.4900657,218.4881 74.4889023,218.484587 C74.4889023,218.479511 74.4889023,218.479121 74.4889023,218.473655 C74.4768812,218.227695 74.4543901,217.984858 74.4524512,217.737727 C74.4443078,216.798784 73.6644857,216 72.7264501,216 C71.7961701,216 70.991918,216.795271 71,217.737727 C71.0334102,221.794115 73.6873647,224.968171 76.803163,227.232175 C80.0271514,229.574651 83.9095874,231.101165 87.7501433,232.058066 C89.5331477,232.501966 91.3615222,232.821323 93.1945501,232.953283 C95.0492935,233.086804 96.902098,232.917755 98.7386159,232.653446 C102.918866,232.051429 107.131301,230.672882 110.750823,228.461975 C114.574317,226.126916 117.96156,222.489831 118,217.737727 C118.007318,216.798394 117.201127,216 116.273561,216" id="Fill-7" fill="#00501E"></path>
                <path d="M184.0022,217.981557 C184.0022,217.972457 184.0008,217.977957 183.9978,218.022157 C183.998,218.020957 183.9983,218.019757 183.9986,218.018457 C183.9998,218.006157 184.001,217.993857 184.0022,217.981557" id="Fill-9" fill="#00501E"></path>
                <path d="M146.803163,227.232175 C150.027151,229.574651 153.909587,231.101165 157.750143,232.058066 C159.53276,232.502356 161.361134,232.821323 163.194162,232.953283 C165.049294,233.086804 166.902098,232.917755 168.738616,232.653446 C172.918866,232.051429 177.130913,230.672882 180.750823,228.462365 C184.574317,226.126916 187.96156,222.489831 188,217.737727 C188.007318,216.798784 187.200739,216 186.273561,216 C185.33126,216 184.554928,216.795271 184.54756,217.737727 C184.545233,217.95792 184.538641,218.176941 184.520803,218.396353 C184.519252,218.41197 184.517701,218.427586 184.516538,218.443203 C184.51615,218.472484 184.512272,218.535731 184.504129,218.578286 C184.503353,218.581409 184.502966,218.584142 184.50219,218.587265 C184.500251,218.6103 184.497149,218.632944 184.495598,218.655978 C184.497149,218.633724 184.497924,218.62006 184.499088,218.601711 C184.420369,219.014767 184.331568,219.421577 184.199723,219.82175 C184.176456,219.892415 184.023672,220.27541 184.032978,220.271506 C183.984506,220.378088 183.937197,220.484671 183.885235,220.589302 C183.690958,220.977372 183.469924,221.351778 183.227175,221.710958 C183.189948,221.765615 183.030184,221.985808 182.970466,222.070528 C182.923157,222.130261 182.862276,222.207172 182.859561,222.211076 C182.801782,222.28057 182.744003,222.349673 182.685449,222.417995 C182.385696,222.765853 182.06733,223.097313 181.734617,223.412767 C181.425169,223.706357 181.100211,223.979646 180.773314,224.252935 C180.758966,224.265038 180.750823,224.271675 180.739578,224.281435 C180.656981,224.344292 180.573996,224.406758 180.490236,224.468443 C180.272693,224.628512 180.051659,224.784287 179.827911,224.935376 C179.029863,225.473756 178.194977,225.955915 177.337599,226.391226 C176.920737,226.602829 176.498059,226.803501 176.070727,226.994023 C176.009458,227.021352 175.947414,227.04829 175.885757,227.075229 C175.839999,227.09514 175.728707,227.14277 175.68799,227.159167 C175.419648,227.267702 175.151305,227.375456 174.880248,227.478135 C173.048771,228.172288 171.154474,228.701688 169.231482,229.066334 C168.787088,229.150272 168.341143,229.222499 167.894035,229.290821 C167.854094,229.297068 167.771497,229.307999 167.717208,229.315027 C167.661368,229.322054 167.605916,229.329472 167.550076,229.336109 C167.287162,229.367342 167.024248,229.395061 166.760559,229.419267 C165.940408,229.494226 165.115604,229.536781 164.29235,229.525849 C163.569532,229.516089 162.847876,229.46026 162.130487,229.37554 C162.043624,229.36539 161.95715,229.353287 161.870287,229.343136 C161.860205,229.341575 161.857491,229.340794 161.845857,229.339232 C161.67601,229.312294 161.506164,229.288088 161.336704,229.259978 C160.897739,229.188142 160.460326,229.106546 160.024463,229.01597 C158.235642,228.645469 156.473577,228.135199 154.760761,227.497265 C154.369105,227.351641 153.981714,227.196257 153.595099,227.037749 C153.529952,227.008858 153.231363,226.881584 153.168155,226.853474 C152.918426,226.741816 152.670636,226.627425 152.424009,226.50913 C151.584857,226.107005 150.763155,225.666619 149.96976,225.180165 C149.543204,224.918589 149.125179,224.643738 148.717236,224.354052 C148.52645,224.218579 148.337989,224.078811 148.152244,223.93631 C148.141774,223.927331 148.135181,223.921475 148.122385,223.910933 C148.017297,223.8227 147.91027,223.7372 147.805958,223.648576 C147.132387,223.076231 146.518922,222.446105 145.958194,221.762492 C145.907783,221.689875 145.707689,221.424004 145.665809,221.361929 C145.539394,221.173359 145.419182,220.981276 145.306339,220.784508 C145.204741,220.608042 145.10896,220.428452 145.019771,220.245348 C144.984871,220.173512 144.953848,220.097382 144.916622,220.026327 C144.912744,220.018909 144.911968,220.018128 144.908478,220.011491 C144.90654,220.005244 144.90654,220.004073 144.903825,219.996265 C144.762674,219.576571 144.621522,219.165467 144.534272,218.729375 C144.518761,218.651293 144.509067,218.569697 144.490841,218.492005 C144.490066,218.488491 144.489678,218.4881 144.488902,218.484587 C144.488515,218.479511 144.48929,218.479511 144.488515,218.473655 C144.476493,218.227695 144.454002,217.984858 144.452451,217.737727 C144.444696,216.798784 143.664486,216 142.726062,216 C141.79617,216 140.991918,216.795271 141,217.737727 C141.03341,221.794115 143.687365,224.968171 146.803163,227.232175" id="Fill-11" fill="#00501E"></path>
                <path d="M141.00495,243.97905 C140.99845,244.00195 140.99565,244.01505 140.99505,244.02095 C140.99815,244.00745 141.00125,243.99385 141.00495,243.98055 L141.00495,243.97905 Z" id="Fill-13" fill="#00501E"></path>
                <path d="M139.767912,244.684625 C139.716132,244.755635 139.623244,244.858599 139.767912,244.684625 M136.023922,247.269385 C135.948821,247.300156 135.868977,247.331716 136.023922,247.269385 M140.480582,242.755917 C140.479001,242.873083 140.471491,242.989461 140.465167,243.106233 C140.468724,243.094398 140.470701,243.086113 140.474653,243.073095 C140.471096,243.086113 140.468724,243.099132 140.465167,243.11215 C140.464772,243.125563 140.463981,243.138976 140.463191,243.152389 C140.459238,243.239573 140.421687,243.323602 140.426035,243.271528 C140.393228,243.413942 140.363187,243.557145 140.317336,243.696798 C140.314174,243.706266 140.285715,243.780432 140.261999,243.844341 C140.232749,243.907066 140.199151,243.981232 140.194408,243.989911 C140.073455,244.224639 139.927601,244.441219 139.783723,244.662138 C139.780956,244.666478 139.776608,244.672001 139.773446,244.677129 C139.714155,244.74735 139.655656,244.81836 139.593994,244.887003 C139.455254,245.042436 139.3094,245.191951 139.158012,245.335944 C139.014529,245.472046 138.863141,245.598286 138.712148,245.725314 C138.655625,245.769893 138.533486,245.868123 138.507399,245.887059 C138.385656,245.973849 138.262332,246.058667 138.137427,246.140722 C137.70856,246.422395 137.261115,246.675664 136.802603,246.906051 C136.567417,247.024007 136.328279,247.133283 136.088351,247.242165 C136.07926,247.24611 136.063054,247.252816 136.045662,247.260312 C135.904946,247.316725 135.763835,247.372744 135.621538,247.426002 C134.582375,247.816162 133.506453,248.11322 132.414324,248.315992 C132.189416,248.357809 131.962926,248.394103 131.736437,248.428819 C131.728137,248.430397 131.728137,248.430397 131.721417,248.431581 C131.707583,248.432764 131.702444,248.433159 131.685843,248.434737 C131.588607,248.444599 131.491766,248.456829 131.394134,248.466297 C130.896095,248.515609 130.394894,248.543619 129.894087,248.537701 C129.507909,248.532573 129.122127,248.504563 128.73832,248.461563 C128.726858,248.460379 128.71579,248.458801 128.704722,248.457618 C128.765199,248.46393 128.508274,248.430003 128.441473,248.418957 C128.217751,248.382663 127.994819,248.342029 127.773073,248.297451 C126.765532,248.095073 125.772616,247.813795 124.807368,247.461507 C124.592737,247.383396 124.380477,247.300156 124.167823,247.215733 C124.148059,247.207843 124.142525,247.205871 124.131063,247.201926 C124.118019,247.195614 124.11288,247.193247 124.096674,247.185751 C124.004181,247.143935 123.911293,247.103696 123.819195,247.061484 C123.318784,246.831885 122.828651,246.579011 122.354723,246.297733 C122.103727,246.149007 121.856684,245.991996 121.61636,245.825912 C121.538097,245.771865 121.461414,245.714269 121.382756,245.660222 C121.358249,245.643653 121.347182,245.636552 121.331371,245.625901 C121.319118,245.614855 121.311212,245.607359 121.291449,245.590396 C120.887879,245.244814 120.519883,244.886609 120.170861,244.486981 C120.092992,244.371392 120.013148,244.258566 119.941209,244.139427 C119.870456,244.021866 119.674007,243.539788 119.721835,243.717707 C119.660173,243.527953 119.598115,243.34096 119.547126,243.145683 C119.534082,243.095976 119.527362,243.044691 119.519457,242.9938 C119.585862,243.349244 119.521038,242.867955 119.519457,242.755917 C119.504832,241.806751 118.721013,241 117.759718,241 C116.817397,241 115.98575,241.803201 116.000185,242.755917 C116.076662,247.790914 121.811623,250.464831 126.008196,251.49842 C130.581856,252.62511 135.642883,251.832166 139.658027,249.336168 C142.008693,247.875337 143.957766,245.645626 143.999834,242.755917 C144.013498,241.806751 143.181062,241 142.240321,241 C141.275073,241 140.494812,241.803595 140.480582,242.755917" id="Fill-15" fill="#00501E"></path>
                <path d="M87.8886189,168.408825 C91.4019182,173.049067 94.6086957,177.952673 97.305243,183.110454 C97.6624041,183.835851 98.6418159,185.82983 99.0043478,186.510823 C99.5195652,187.686386 100.047442,188.840131 100.62289,190 L101,189.899325 C100.839258,188.613516 100.634015,187.323497 100.404604,186.044195 C100.240793,185.274777 99.6404092,183.022028 99.4439898,182.250313 C97.1164962,174.747146 93.134399,167.686108 87.7263427,161.963321 C75.8429668,149.419891 60.5863171,140.170031 44.1204604,135 L44,135.370546 C53.4496164,139.198879 62.2973146,144.385753 70.3662404,150.557941 C77.0878517,155.597822 82.912532,161.673545 87.8886189,168.408825" id="Fill-17" fill="#00501E"></path>
                <path d="M141.034477,132.168876 C141.520028,138.183333 141.22341,144.305109 140.670216,150.29856 C140.162894,155.209653 139.46936,160.37625 138.31321,165.181552 C137.433853,169.06643 136.244271,173.129663 134.897244,176.890799 C134.550477,177.857054 134.205653,178.829419 133.883378,179.819734 L134.234032,180 C136.032789,177.435416 137.610735,174.681781 138.987696,171.873533 C142.521454,164.247761 144.621883,155.904364 144.971371,147.526976 C145.478693,125.720178 139.216282,103.925602 128.344046,85 L128,85.1913413 C131.644942,92.563901 134.501883,100.303103 136.689781,108.176358 C138.886231,116.023261 140.415583,124.063797 141.034477,132.168876" id="Fill-19" fill="#00501E"></path>
                <path d="M189.378934,171.299056 C187.113504,174.62043 184.500498,177.748352 181.41556,180.375375 C176.821365,184.524401 172.321017,188.075617 167,191.647255 L167.140189,192 C167.685885,191.936506 168.226174,191.845535 168.768394,191.748994 C170.387716,191.455658 171.98155,190.962558 173.503551,190.354722 C176.571496,189.13608 179.433985,187.398346 181.905643,185.26925 C184.337523,183.114163 186.329525,180.519072 188.200648,177.932522 C193.108434,171.101147 196.4668,163.239014 198,155.07946 L197.615734,155 C195.667373,160.785021 192.856634,166.255171 189.378934,171.299056" id="Fill-21" fill="#00501E"></path>
            </g>
        </g>
    </g>
</svg>